<?xml version="1.0" standalone="no"?>
<!DOCTYPE svg PUBLIC "-//W3C//DTD SVG 20010904//EN"
 "http://www.w3.org/TR/2001/REC-SVG-20010904/DTD/svg10.dtd">
<svg version="1.0" xmlns="http://www.w3.org/2000/svg"
 width="512.000000pt" height="512.000000pt" viewBox="0 0 512.000000 512.000000"
 preserveAspectRatio="xMidYMid meet">
<metadata>
Created by potrace 1.11, written by Peter Selinger 2001-2013
</metadata>
<g transform="translate(0.000000,512.000000) scale(0.100000,-0.100000)"
fill="#000000" stroke="none">
<path d="M2235 5105 c-694 -91 -1315 -453 -1730 -1010 -272 -365 -434 -769
-491 -1225 -17 -134 -19 -459 -3 -598 21 -195 74 -417 145 -611 42 -114 157
-351 213 -438 37 -57 43 -62 71 -59 21 2 43 17 66 42 19 22 39 38 44 37 6 -2
9 3 7 10 -1 6 4 11 11 10 6 -2 12 2 12 8 0 14 307 318 314 311 3 -3 6 0 6 6 0
12 109 125 154 160 17 12 27 22 23 22 -3 0 21 27 55 60 34 33 65 60 69 60 5 0
11 5 15 12 5 7 2 8 -7 3 -13 -8 4 13 71 85 16 17 28 33 27 35 -1 2 6 14 16 25
9 11 17 24 17 29 0 5 7 12 16 15 8 3 12 10 9 16 -3 5 -1 10 5 10 6 0 9 4 5 9
-3 5 1 15 8 23 15 15 73 149 69 160 -1 5 2 8 8 8 5 0 7 7 4 15 -4 8 -2 21 3
28 12 16 11 35 -14 207 -6 46 -6 237 1 275 3 17 8 46 11 65 10 65 39 170 47
170 4 0 5 7 2 15 -4 8 -1 15 6 15 6 0 9 4 5 10 -3 5 -1 17 4 27 5 10 22 45 37
78 16 33 32 63 37 66 5 3 9 10 10 15 2 16 32 64 40 64 5 0 5 5 2 10 -3 6 -2
10 4 10 5 0 12 8 15 18 4 9 20 33 37 52 103 118 133 149 140 144 4 -2 11 1 15
7 5 8 3 9 -7 4 -8 -4 -5 1 6 12 11 11 22 19 23 18 2 -2 12 4 21 13 33 31 61
52 61 45 0 -4 6 0 13 9 13 18 53 42 137 84 30 16 58 33 62 39 4 5 8 7 8 3 0
-4 25 3 55 17 30 13 55 22 55 20 0 -2 16 3 35 11 19 8 35 12 35 9 0 -2 11 0
25 5 30 11 63 19 125 28 60 8 294 8 345 0 92 -16 144 -28 186 -43 24 -9 51
-17 59 -20 53 -13 91 -40 96 -69 1 -6 3 -15 4 -21 7 -31 -8 -55 -87 -133 -48
-48 -90 -86 -95 -85 -4 2 -8 -4 -8 -12 0 -9 -11 -20 -25 -27 -13 -6 -23 -14
-22 -17 2 -3 -12 -20 -30 -38 -18 -17 -33 -30 -33 -29 0 2 -49 -46 -110 -105
-60 -60 -114 -109 -120 -109 -6 0 -8 -4 -5 -10 3 -5 -1 -10 -9 -10 -8 0 -18
-5 -22 -12 -5 -7 -2 -8 7 -3 8 4 5 -1 -6 -12 -11 -11 -22 -19 -24 -17 -2 2
-14 -10 -26 -26 -12 -16 -24 -29 -26 -27 -2 1 -36 -30 -75 -70 -40 -40 -70
-73 -67 -73 3 0 0 -7 -7 -15 -24 -29 -14 -249 13 -292 5 -7 6 -17 2 -22 -3 -5
-1 -12 5 -16 5 -3 10 -16 10 -28 1 -30 36 -106 52 -111 7 -2 22 -7 33 -12 116
-43 375 -78 391 -52 3 4 9 6 14 3 8 -5 240 223 240 238 0 4 5 5 10 2 6 -3 10
-2 10 2 0 5 7 18 16 29 8 10 12 12 8 4 -7 -13 -5 -13 9 -2 9 8 15 17 14 20 -2
7 39 52 48 52 3 0 6 3 8 7 1 5 97 104 213 221 185 187 215 213 247 217 22 3
37 1 37 -6 0 -5 4 -8 9 -5 11 7 43 -28 34 -37 -3 -4 -2 -7 4 -7 9 0 17 -25 24
-68 0 -4 4 -11 8 -17 8 -10 20 -51 27 -90 5 -28 9 -47 16 -70 21 -66 23 -273
4 -405 -10 -64 -27 -143 -35 -155 -3 -5 -6 -13 -7 -17 -1 -5 -2 -9 -4 -10 -2
-3 -6 -19 -14 -57 -3 -14 -11 -28 -17 -31 -6 -4 -10 -11 -10 -16 1 -17 -12
-49 -33 -79 -11 -16 -20 -32 -20 -35 3 -11 -30 -70 -38 -70 -5 0 -7 -4 -4 -9
3 -5 -1 -11 -9 -15 -8 -3 -15 -12 -15 -21 0 -8 -4 -15 -9 -15 -5 0 -14 -13
-21 -30 -7 -16 -16 -27 -21 -24 -5 3 -9 0 -9 -6 0 -7 -16 -27 -35 -46 -19 -18
-35 -38 -35 -44 0 -6 -4 -8 -10 -5 -5 3 -10 -1 -10 -9 0 -9 -5 -16 -10 -16 -6
0 -23 -12 -37 -27 -14 -16 -29 -27 -34 -26 -5 2 -9 -4 -9 -13 0 -8 -4 -12 -10
-9 -5 3 -10 1 -10 -4 0 -6 -7 -11 -15 -11 -8 0 -15 -4 -15 -9 0 -4 -18 -20
-40 -35 -22 -14 -40 -24 -40 -21 0 3 -8 -2 -17 -10 -10 -8 -21 -14 -25 -13 -4
2 -14 -6 -23 -17 -9 -11 -13 -13 -9 -5 5 8 -4 5 -20 -8 -16 -12 -32 -19 -37
-16 -5 3 -9 0 -9 -6 0 -6 -4 -8 -10 -5 -5 3 -10 3 -10 -2 0 -8 -62 -33 -87
-35 -7 -1 -13 -6 -13 -11 0 -5 -7 -7 -15 -3 -8 3 -15 1 -15 -3 0 -5 -8 -8 -17
-6 -10 1 -23 -1 -29 -6 -6 -5 -26 -11 -45 -13 -19 -3 -34 -6 -34 -7 0 -1 -11
-3 -25 -5 -14 -1 -50 -6 -80 -10 -69 -8 -216 -8 -295 2 -72 9 -161 9 -195 -1
-14 -3 -32 -8 -40 -10 -8 -2 -16 -4 -17 -5 -2 -2 -6 -3 -10 -4 -5 -2 -27 -10
-50 -20 -23 -10 -45 -17 -49 -16 -4 1 -11 -5 -16 -14 -5 -9 -18 -16 -28 -16
-11 0 -20 -4 -20 -10 0 -5 -9 -10 -20 -10 -11 0 -20 -4 -20 -10 0 -5 -7 -10
-15 -10 -8 0 -15 -5 -15 -11 0 -5 -4 -8 -9 -5 -5 3 -12 -1 -15 -10 -3 -8 -10
-13 -15 -10 -5 3 -12 -1 -15 -10 -4 -9 -9 -14 -12 -11 -5 5 -14 -2 -65 -48 -9
-8 -19 -15 -22 -15 -12 0 -46 -38 -40 -44 4 -3 2 -6 -4 -6 -6 0 -165 -154
-353 -343 -286 -285 -343 -347 -343 -370 0 -32 6 -37 144 -117 283 -162 620
-274 949 -315 163 -20 478 -20 640 0 1161 144 2081 1064 2225 2225 17 143 20
454 5 598 -62 582 -327 1131 -747 1544 -122 120 -160 153 -288 248 -346 257
-766 423 -1205 476 -143 17 -500 16 -635 -1z"/>
<path d="M719 1413 c-13 -16 -12 -17 4 -4 9 7 17 15 17 17 0 8 -8 3 -21 -13z"/>
</g>
</svg>
